<?xml version="1.0" standalone="no"?>
<!DOCTYPE svg PUBLIC "-//W3C//DTD SVG 20010904//EN"
 "http://www.w3.org/TR/2001/REC-SVG-20010904/DTD/svg10.dtd">
<svg version="1.0" xmlns="http://www.w3.org/2000/svg"
 width="2597.000000pt" height="2233.000000pt" viewBox="0 0 2597.000000 2233.000000"
 preserveAspectRatio="xMidYMid meet">

<g transform="translate(0.000000,2233.000000) scale(0.100000,-0.100000)"
fill="#000000" stroke="none">
<path d="M15765 18125 c-143 -16 -201 -25 -360 -60 -66 -14 -196 -41 -290 -60
-301 -62 -407 -86 -539 -121 -191 -51 -228 -67 -511 -224 -69 -38 -231 -138
-322 -199 -84 -55 -96 -59 -246 -77 -256 -30 -410 -73 -667 -189 -178 -80
-432 -238 -615 -381 -105 -82 -428 -408 -502 -506 -151 -200 -368 -630 -416
-824 -52 -206 -96 -997 -68 -1205 15 -114 79 -369 138 -549 67 -203 311 -684
476 -936 35 -54 70 -109 76 -122 7 -13 39 -53 72 -89 33 -36 102 -118 153
-182 51 -64 121 -147 156 -186 86 -97 103 -136 138 -320 44 -233 44 -231 32
-293 -28 -143 -81 -269 -175 -422 -363 -590 -432 -818 -360 -1189 57 -292 164
-549 311 -746 67 -90 105 -129 238 -245 60 -52 123 -109 140 -126 39 -40 155
-127 236 -179 80 -51 125 -81 192 -126 80 -55 175 -104 300 -155 166 -68 269
-104 301 -104 15 0 67 -11 115 -24 123 -34 251 -48 452 -50 176 -1 352 17 370
39 5 5 4 116 -1 255 -15 383 -6 433 83 497 40 28 326 174 428 217 25 11 87 39
139 63 56 26 98 40 104 34 16 -16 27 -84 15 -98 -15 -19 -285 -163 -540 -289
-79 -39 -104 -63 -113 -112 -17 -85 2 -459 31 -599 10 -50 -25 -66 -251 -110
-58 -11 -147 -16 -320 -16 -220 -1 -247 1 -320 22 -44 12 -120 34 -170 47 -49
14 -130 41 -180 60 -49 20 -117 46 -150 59 -33 13 -103 44 -156 69 -111 53
-134 57 -125 24 14 -50 27 -188 24 -258 l-3 -75 -68 -34 c-118 -58 -230 -193
-261 -315 -8 -29 -20 -52 -28 -54 -8 -2 -51 9 -94 24 -140 47 -273 23 -382
-69 -24 -21 -52 -37 -61 -37 -33 0 -136 85 -153 126 -18 43 -35 200 -43 404
-3 74 -11 182 -17 239 -12 101 -12 104 12 145 40 71 81 157 122 261 22 55 53
131 68 169 24 59 26 73 17 108 -9 38 -12 40 -41 34 -17 -4 -44 -19 -61 -35
-43 -40 -158 -121 -244 -170 -217 -127 -455 -201 -644 -201 -86 0 -267 32
-354 63 -66 23 -245 125 -385 219 -115 77 -320 301 -459 500 -127 184 -164
248 -257 438 -116 239 -179 398 -212 535 l-27 110 -44 24 c-201 108 -332 258
-412 471 -5 14 -13 33 -18 42 -5 10 -9 27 -9 38 0 11 -4 28 -9 38 -34 67 -61
292 -72 597 -2 63 19 192 40 241 19 44 36 61 123 125 56 41 126 91 157 111 31
20 71 49 89 64 19 15 74 54 122 85 51 33 95 70 103 86 8 15 31 84 51 153 71
240 88 283 132 343 24 32 69 98 101 148 32 50 107 166 167 257 108 164 216
363 216 396 0 10 5 27 12 39 36 69 58 224 58 429 0 173 7 224 25 180 22 -52
35 -172 35 -320 l0 -163 23 7 c104 33 512 231 629 305 l66 43 5 355 c2 196 10
415 18 486 7 72 13 152 13 179 l1 50 -45 15 c-36 11 -108 14 -345 14 -266 1
-314 -2 -420 -21 -316 -58 -518 -126 -883 -297 -99 -47 -168 -90 -277 -173
-38 -30 -111 -84 -160 -122 -370 -278 -550 -622 -585 -1117 -5 -76 -14 -187
-20 -248 -19 -207 29 -571 96 -728 86 -201 190 -367 327 -519 l78 -87 -22 -43
c-12 -24 -34 -61 -49 -83 -62 -92 -112 -234 -135 -389 -19 -125 -19 -184 0
-283 29 -158 165 -373 276 -435 22 -12 39 -27 39 -33 0 -7 -13 -41 -28 -76
-46 -103 -58 -168 -42 -236 50 -227 140 -309 385 -348 95 -15 113 -65 42 -114
-61 -42 -160 -150 -184 -202 -24 -53 -53 -188 -53 -252 0 -151 92 -407 187
-518 81 -95 219 -198 323 -239 186 -75 299 -106 436 -118 45 -4 87 -12 95 -19
16 -13 30 -41 87 -165 23 -49 58 -106 83 -133 86 -93 263 -191 407 -226 51
-12 100 -28 107 -36 22 -22 4 -55 -49 -88 -269 -172 -341 -236 -402 -359 l-39
-80 0 -125 c0 -154 15 -204 91 -312 100 -143 131 -162 384 -244 119 -39 368
-27 461 21 l32 16 -38 36 c-48 46 -98 124 -142 220 -34 73 -35 76 -31 186 4
122 15 157 89 267 82 122 248 234 404 273 71 17 233 31 262 22 19 -6 53 -81
53 -115 0 -7 -40 -11 -117 -10 -164 1 -242 -21 -372 -105 -134 -86 -201 -203
-201 -350 0 -75 3 -90 35 -154 44 -86 132 -172 220 -212 79 -37 102 -62 87
-95 -6 -14 -18 -25 -25 -25 -7 0 -58 -22 -113 -49 -141 -70 -209 -85 -379 -85
-179 0 -317 31 -449 102 -43 23 -59 22 -146 -10 -105 -39 -140 -58 -196 -109
-60 -54 -103 -77 -171 -91 -24 -4 -62 -12 -85 -17 -150 -32 -169 -34 -184 -19
-10 9 -18 51 -24 119 -15 175 -29 309 -45 419 -21 143 -39 460 -26 473 5 5 42
18 82 29 67 18 455 170 523 205 17 9 79 45 139 80 109 66 127 87 112 132 -4
13 -24 26 -58 37 -71 23 -182 79 -239 120 -45 34 -125 130 -152 184 -8 14 -21
49 -30 78 -10 29 -25 56 -34 61 -30 15 -148 34 -174 28 -16 -4 -45 -35 -84
-89 -96 -134 -173 -236 -184 -243 -12 -8 -52 -80 -62 -113 -7 -25 5 -185 22
-287 5 -33 15 -127 21 -210 5 -82 14 -188 19 -235 6 -47 14 -146 20 -220 5
-74 12 -148 15 -165 4 -16 11 -88 16 -160 18 -237 26 -310 34 -329 7 -16 16
-18 75 -12 37 3 114 15 170 26 67 14 106 18 113 11 11 -11 4 -22 -123 -191
-48 -63 -106 -144 -130 -180 -71 -108 -102 -134 -182 -152 -83 -18 -123 -28
-378 -98 -120 -33 -342 -91 -380 -100 -19 -5 -82 -20 -140 -34 -58 -15 -125
-31 -150 -37 -78 -18 -113 -27 -175 -45 -33 -9 -73 -18 -90 -18 -29 -1 -30 0
-28 46 2 75 28 106 145 173 228 131 416 259 431 292 11 25 -8 543 -24 627 -16
84 -11 180 9 207 89 115 257 441 272 529 26 144 -34 125 -284 -89 -56 -48
-205 -123 -276 -141 -185 -44 -425 -45 -615 -1 -127 28 -285 86 -410 148 -110
55 -322 199 -442 301 -60 50 -182 192 -215 249 -12 21 -34 54 -48 73 -105 141
-244 469 -284 670 -8 41 -26 125 -40 185 -59 250 -65 301 -96 855 -22 382 8
798 77 1065 94 367 366 886 613 1170 41 47 82 85 92 85 10 0 36 -25 60 -57
143 -195 391 -452 572 -593 113 -88 350 -257 376 -268 8 -3 47 -24 85 -47 39
-22 90 -50 115 -62 68 -32 182 -65 192 -55 4 4 -1 35 -12 68 -70 201 -22 583
106 851 19 39 34 77 34 83 0 7 -30 44 -67 84 -84 91 -158 202 -223 341 -64
134 -91 213 -131 373 -26 105 -31 142 -31 250 0 70 5 158 12 195 6 37 8 72 5
78 -15 23 -474 1 -660 -32 -85 -15 -194 -53 -303 -107 -186 -92 -256 -194
-332 -482 -22 -84 -40 -158 -40 -165 0 -21 -33 -42 -130 -80 -52 -20 -117 -46
-145 -58 -90 -38 -355 -176 -413 -215 -32 -21 -93 -62 -137 -92 -261 -176
-460 -357 -560 -510 -123 -189 -140 -244 -139 -475 0 -147 2 -169 31 -275 17
-63 34 -131 37 -152 9 -52 99 -323 141 -423 34 -82 58 -127 112 -206 13 -20
32 -59 43 -86 l19 -50 -29 -49 c-16 -27 -65 -95 -109 -151 -44 -56 -108 -142
-143 -190 -121 -169 -312 -417 -362 -473 -52 -58 -129 -159 -180 -238 -24 -36
-31 -62 -39 -138 -11 -105 -10 -111 55 -277 67 -172 182 -375 278 -492 176
-213 475 -460 672 -554 322 -152 378 -174 621 -241 395 -110 534 -125 1103
-125 333 1 421 6 664 44 127 20 175 28 293 52 27 5 61 9 77 9 26 0 28 -3 39
-62 6 -35 16 -164 21 -288 6 -124 15 -258 20 -298 6 -40 10 -115 10 -166 0
-108 4 -102 -135 -193 -228 -150 -363 -223 -408 -223 -53 0 -250 -67 -502
-170 -11 -5 -40 -16 -65 -25 -46 -16 -46 -16 -84 -118 -21 -56 -43 -106 -47
-111 -5 -6 -9 -18 -9 -29 0 -23 -198 -469 -324 -729 -51 -106 -106 -222 -122
-258 -54 -123 -196 -405 -256 -508 -33 -56 -68 -124 -79 -151 -16 -44 -16 -50
-3 -55 9 -3 2616 -6 5794 -6 5489 0 5779 1 5797 18 18 15 133 259 133 281 0 5
16 42 36 83 20 40 44 91 54 113 10 22 38 83 64 136 25 53 46 100 46 104 0 25
126 258 158 293 70 74 113 54 177 -82 113 -242 147 -314 165 -346 10 -19 27
-57 38 -85 21 -52 113 -251 136 -295 8 -14 31 -65 51 -113 28 -66 44 -91 62
-98 34 -13 1270 -12 1278 1 3 5 2 36 -4 67 -5 32 -15 96 -21 143 -6 47 -15
108 -20 135 -16 91 -33 199 -40 260 -5 33 -13 101 -20 150 -16 122 -27 214
-38 317 -6 48 -13 91 -16 96 -3 5 -10 47 -16 93 -6 46 -15 117 -20 156 -17
127 -28 216 -35 273 -3 30 -10 78 -15 105 -5 28 -16 102 -25 165 -9 63 -20
142 -25 175 -5 33 -13 98 -19 145 -6 47 -13 101 -16 120 -3 19 -9 69 -14 111
-4 42 -11 80 -14 86 -4 6 -12 50 -18 99 -6 49 -15 116 -20 149 -12 80 -27 203
-37 296 -5 41 -11 80 -15 86 -4 6 -12 48 -18 94 -21 164 -28 215 -39 304 -6
50 -15 122 -20 160 -5 39 -14 109 -19 158 -6 48 -13 92 -16 97 -4 6 -11 47
-16 93 -11 91 -25 205 -39 312 -5 39 -13 106 -18 150 -6 44 -13 87 -16 95 -3
8 -10 51 -16 95 -24 180 -31 234 -41 310 -5 44 -14 112 -18 150 -5 39 -14 107
-19 152 -6 46 -13 87 -17 93 -4 6 -11 47 -16 93 -11 82 -19 142 -38 272 -12
84 -36 174 -50 188 -7 7 -45 -13 -118 -60 -186 -121 -255 -158 -588 -313 -55
-25 -326 -115 -420 -139 -76 -19 -351 -62 -495 -76 -161 -17 -378 -18 -545 -5
-306 25 -354 30 -404 44 -58 16 -101 49 -101 77 0 23 -23 107 -48 179 -17 49
-42 144 -74 280 -20 86 -30 110 -45 110 -8 0 -47 -11 -86 -24 -112 -38 -315
-96 -336 -96 -21 0 -31 19 -31 60 0 21 9 36 33 53 33 26 149 72 252 102 33 9
71 21 85 25 79 26 126 32 167 21 46 -12 47 -15 57 -101 8 -64 20 -121 51 -235
15 -55 30 -116 35 -135 5 -19 14 -53 20 -75 6 -22 14 -52 17 -67 3 -15 10 -31
17 -36 18 -14 222 -50 336 -59 130 -10 321 -10 550 0 172 8 232 15 340 42 30
8 96 24 145 36 50 11 104 25 120 30 128 37 206 63 242 80 24 10 46 19 51 19 8
0 259 126 332 167 95 53 207 129 265 179 33 28 74 58 92 67 50 26 297 261 352
336 106 142 148 232 214 451 52 172 57 199 57 315 0 220 -111 511 -308 810
-68 103 -231 274 -560 585 -195 184 -258 264 -338 423 l-65 130 3 136 c3 105
11 172 36 291 44 216 50 249 57 300 20 149 25 195 35 289 5 57 12 106 14 110
13 20 37 287 46 502 13 317 13 541 -1 654 -12 99 -106 488 -140 575 -11 30
-36 111 -54 180 -25 96 -53 165 -118 297 -47 95 -90 185 -95 200 -27 70 -148
272 -229 381 -117 159 -408 460 -563 584 -282 225 -627 398 -902 453 -106 21
-157 33 -413 96 -374 91 -367 90 -685 94 -194 3 -323 -1 -405 -10z m-1789
-857 c-26 -91 -36 -229 -36 -531 -1 -310 0 -326 24 -419 47 -186 289 -711 409
-888 117 -172 268 -334 497 -531 107 -92 377 -306 438 -347 261 -176 606 -315
897 -362 268 -44 569 -23 825 56 62 19 120 34 130 34 26 0 54 37 98 130 60
125 94 182 147 247 59 73 102 107 190 148 96 46 146 57 245 58 71 1 93 -3 130
-22 150 -78 270 -342 270 -596 0 -283 -81 -535 -240 -750 -74 -99 -101 -126
-230 -227 -168 -132 -243 -162 -407 -163 -61 0 -115 -3 -119 -8 -4 -4 -11 -87
-16 -185 -15 -332 -30 -445 -88 -672 -5 -19 -12 -48 -16 -65 -17 -82 -74 -266
-104 -340 -4 -11 -15 -38 -23 -60 -8 -22 -27 -67 -42 -100 -101 -223 -118
-253 -215 -385 -30 -41 -57 -77 -60 -80 -3 -3 -17 -21 -30 -40 -14 -19 -53
-65 -87 -102 -75 -80 -71 -31 -44 -533 11 -192 21 -453 23 -578 2 -199 1 -230
-13 -237 -8 -5 -67 -27 -130 -48 -139 -48 -547 -206 -764 -297 -202 -84 -191
-81 -204 -56 -14 25 -30 163 -37 306 l-5 110 68 77 c37 42 103 115 145 163 87
98 121 168 122 255 1 50 -1 55 -21 58 -14 2 -60 -20 -120 -56 -54 -33 -111
-66 -128 -74 -103 -52 -411 -132 -569 -149 -127 -14 -358 -3 -488 21 -53 11
-162 43 -242 73 -263 100 -512 270 -764 525 -277 280 -415 507 -581 962 -73
198 -157 634 -191 995 -6 66 -15 161 -20 210 -46 436 -28 900 60 1585 22 171
81 405 145 580 26 69 50 136 55 150 13 43 87 204 146 322 113 224 283 485 429
657 72 85 277 290 345 345 l35 29 6 136 c12 237 34 387 84 567 28 98 41 124
62 124 11 0 14 -6 9 -22z"/>
<path d="M13321 14121 c-6 -11 -11 -33 -11 -49 0 -72 -101 -303 -178 -406 -21
-28 -45 -62 -54 -76 -8 -14 -55 -67 -104 -119 -68 -72 -103 -100 -154 -125
l-65 -32 -3 -47 c-4 -56 24 -148 74 -248 60 -120 212 -252 351 -304 108 -41
140 -46 165 -25 21 16 21 19 6 42 -10 16 -55 42 -125 73 -135 60 -237 118
-285 163 -42 40 -88 129 -112 219 -20 75 -13 94 45 124 113 57 309 299 417
514 43 87 75 210 70 270 -3 44 -21 56 -37 26z"/>
<path d="M11340 13203 c-19 -9 -69 -28 -110 -44 -422 -155 -1338 -623 -1585
-808 -27 -21 -61 -44 -75 -51 -14 -7 -88 -54 -165 -104 -77 -51 -165 -107
-195 -125 -30 -18 -75 -50 -99 -71 -40 -35 -46 -45 -55 -102 -13 -84 -12 -432
2 -533 22 -160 51 -255 119 -392 55 -111 133 -209 200 -250 56 -35 189 -83
228 -83 14 0 61 16 102 35 148 68 253 213 297 408 7 31 12 32 130 11 67 -11
66 44 -2 61 -63 15 -171 87 -236 155 -61 65 -66 74 -66 115 0 36 5 47 26 62
62 44 90 71 145 146 99 133 138 233 139 352 0 81 -19 329 -31 388 -6 33 -6 55
2 69 11 20 125 78 153 78 21 0 24 -7 36 -86 6 -38 15 -89 20 -114 5 -25 17
-92 26 -150 40 -248 131 -427 306 -596 90 -88 175 -144 282 -185 75 -29 90
-31 192 -30 85 1 132 7 195 25 46 13 105 27 131 30 79 12 232 132 364 287 101
119 126 178 164 384 7 33 16 79 21 102 16 74 11 168 -9 186 -10 10 -25 17 -33
17 -8 0 -23 7 -33 15 -26 20 -34 12 -41 -43 -13 -98 -55 -299 -76 -362 -56
-174 -144 -292 -309 -414 -100 -75 -118 -84 -230 -121 -105 -35 -216 -39 -300
-11 -162 55 -297 152 -379 275 -46 67 -111 209 -111 240 0 9 -4 21 -9 27 -9 9
-47 133 -70 227 -6 27 -11 128 -11 235 l0 187 28 18 c133 86 547 297 682 348
154 57 302 118 325 133 43 28 26 77 -24 75 -15 0 -42 -8 -61 -16z m-1372 -810
c5 -10 12 -72 16 -138 8 -142 22 -291 37 -396 10 -67 9 -80 -6 -110 -41 -78
-110 -163 -162 -196 -60 -38 -81 -66 -90 -116 -4 -28 2 -48 33 -103 21 -38 55
-88 76 -110 21 -23 38 -49 38 -59 0 -48 -46 -176 -86 -237 -46 -72 -131 -147
-203 -180 -36 -17 -55 -19 -105 -13 -81 9 -224 82 -251 128 -10 18 -21 34 -24
37 -22 19 -84 175 -101 255 -5 22 -14 58 -20 80 -41 141 -59 313 -51 476 6
114 17 149 46 149 6 0 56 33 111 73 258 190 691 477 720 477 7 0 17 -8 22 -17z"/>
<path d="M7143 9807 c-68 -130 -156 -252 -244 -339 -49 -48 -89 -95 -89 -105
1 -29 38 -104 76 -150 42 -51 142 -103 264 -136 88 -25 110 -25 110 -1 0 18
-37 36 -130 64 -94 28 -146 54 -188 94 -33 31 -72 94 -72 117 0 6 38 50 84 98
93 96 150 177 201 283 32 66 46 138 28 138 -5 0 -23 -28 -40 -63z"/>
</g>
</svg>
