<?xml version="1.0" standalone="no"?>
<!DOCTYPE svg PUBLIC "-//W3C//DTD SVG 20010904//EN"
 "http://www.w3.org/TR/2001/REC-SVG-20010904/DTD/svg10.dtd">
<svg version="1.0" xmlns="http://www.w3.org/2000/svg"
 width="2597.000000pt" height="2233.000000pt" viewBox="0 0 2597.000000 2233.000000"
 preserveAspectRatio="xMidYMid meet">

<g transform="translate(0.000000,2233.000000) scale(0.100000,-0.100000)"
fill="#000000" stroke="none">
<path d="M15825 20374 c-107 -16 -356 -58 -440 -75 -55 -11 -145 -29 -200 -39
-356 -67 -781 -172 -941 -232 -96 -36 -357 -170 -534 -274 -195 -115 -251
-140 -351 -154 -375 -55 -737 -194 -1119 -430 -536 -332 -956 -767 -1204
-1250 -16 -30 -36 -62 -45 -71 -9 -9 -95 -42 -191 -74 -243 -80 -489 -178
-705 -281 -38 -18 -92 -38 -120 -44 -349 -75 -674 -200 -1012 -386 -315 -173
-696 -503 -856 -739 -145 -214 -223 -421 -266 -702 -15 -101 -30 -186 -34
-189 -3 -3 -85 -9 -184 -14 -313 -16 -530 -71 -753 -192 -278 -150 -407 -322
-511 -676 l-22 -74 -166 -80 c-559 -272 -1010 -606 -1223 -908 -88 -125 -174
-300 -205 -420 -23 -86 -25 -114 -25 -295 0 -157 4 -226 21 -323 20 -116 30
-161 81 -347 35 -127 108 -330 165 -460 29 -66 50 -124 46 -130 -209 -281
-310 -414 -477 -626 -223 -283 -269 -359 -305 -496 -27 -101 -36 -281 -19
-376 35 -200 176 -513 329 -732 177 -253 492 -548 761 -714 85 -52 295 -155
400 -196 52 -20 122 -47 155 -60 259 -101 641 -198 880 -224 230 -25 590 -34
935 -23 193 6 352 6 361 2 24 -13 74 -215 61 -245 -17 -36 -72 -73 -168 -111
-49 -20 -108 -45 -131 -55 -47 -21 -313 -128 -408 -164 -128 -48 -234 -104
-272 -142 -53 -53 -79 -102 -158 -300 -89 -223 -180 -428 -298 -673 -102 -212
-184 -384 -267 -555 -103 -213 -160 -339 -160 -354 0 -8 1988 -10 7548 -9
7540 3 7547 3 7545 23 -1 11 -18 142 -38 290 -20 149 -45 335 -55 415 -10 80
-30 224 -44 320 -14 96 -30 216 -36 265 -6 50 -17 133 -25 185 -8 52 -33 228
-55 390 -22 162 -47 340 -55 395 -13 89 -45 318 -105 765 -11 80 -27 192 -35
250 -8 58 -24 177 -35 265 -12 88 -23 169 -25 180 -5 18 -38 261 -95 685 -10
74 -29 214 -43 310 -14 96 -37 258 -51 360 -14 102 -30 217 -35 255 -32 231
-66 450 -86 541 -6 27 0 37 62 105 209 227 312 419 420 789 142 487 -12 1045
-435 1580 -78 98 -276 300 -491 500 -145 135 -233 242 -284 342 -59 120 -59
117 -36 230 11 56 22 105 24 108 6 9 81 503 94 620 7 52 16 122 21 155 6 33
22 182 36 330 36 371 38 769 5 985 -58 382 -226 916 -403 1280 -113 232 -282
506 -404 656 -181 221 -481 518 -652 643 -218 160 -513 319 -758 409 -194 71
-769 216 -1044 263 -108 18 -173 22 -475 24 -192 2 -363 1 -380 -1z"/>
<path d="M12860 5322 c-19 -11 -42 -30 -52 -43 -9 -13 -38 -105 -63 -204 -26
-98 -49 -183 -51 -187 -3 -4 -49 -8 -103 -8 -149 0 -220 -29 -328 -134 l-53
-50 0 38 c0 52 -26 102 -65 126 -29 18 -49 20 -216 20 -165 0 -187 -2 -216
-20 -60 -36 -63 -52 -63 -335 0 -211 -2 -256 -14 -253 -7 2 -126 134 -265 294
-138 160 -262 296 -276 302 -41 19 -396 16 -421 -3 -10 -8 -28 -14 -39 -14
-11 0 -29 6 -39 14 -17 13 -106 15 -606 15 -571 0 -588 -1 -649 -21 -59 -20
-147 -76 -164 -106 -11 -18 -27 -16 -27 3 0 31 -33 84 -65 104 -32 19 -49 20
-1425 20 -1542 0 -1441 4 -1478 -64 -26 -47 -25 -369 1 -409 38 -58 52 -62
287 -67 l215 -5 3 -467 2 -468 35 -34 c43 -44 75 -49 276 -44 167 3 187 9 226
66 17 25 18 62 21 490 l3 462 197 -2 197 -3 5 -465 c4 -337 8 -471 17 -486 7
-12 25 -30 40 -40 27 -18 59 -19 653 -22 344 -2 644 0 668 3 55 8 109 54 118
101 3 19 8 34 11 34 3 0 23 -16 46 -35 58 -50 133 -84 208 -96 38 -6 284 -9
614 -7 509 3 552 4 583 21 32 18 34 18 60 0 23 -15 53 -19 188 -21 182 -4 227
4 269 48 l30 31 3 270 c2 148 7 269 12 269 5 0 89 -93 188 -207 295 -342 316
-365 345 -387 27 -20 41 -21 221 -21 168 0 195 2 219 18 41 27 67 75 67 125
l0 44 58 -60 c68 -68 142 -108 228 -122 79 -13 866 -13 934 0 77 15 147 50
206 103 29 26 55 47 58 47 3 0 6 -14 6 -31 0 -37 22 -77 58 -104 26 -19 45
-20 707 -23 374 -2 699 0 723 3 30 5 53 16 78 41 l34 35 63 -31 c97 -47 152
-52 634 -48 422 3 440 4 491 25 77 31 153 93 197 159 34 51 40 56 49 40 55
-93 133 -161 223 -198 57 -22 66 -23 496 -26 268 -2 464 1 504 7 89 14 164 52
229 117 29 30 56 54 59 54 3 0 5 -18 5 -41 0 -47 20 -85 58 -114 25 -18 43
-20 217 -20 167 0 193 2 217 18 57 39 62 58 66 235 l4 162 239 0 239 0 0 -142
c0 -172 9 -208 57 -245 36 -27 40 -28 191 -31 85 -2 175 -1 199 3 61 9 108 57
117 119 l7 47 57 -52 c66 -61 137 -96 219 -109 76 -13 850 -13 926 0 146 24
281 140 323 279 10 32 14 102 14 237 0 211 -8 255 -61 338 l-31 50 24 18 c12
9 25 18 28 18 3 0 13 13 23 29 22 37 24 223 3 292 -30 97 -88 173 -174 227
-100 63 -100 63 -633 60 l-484 -3 -65 -32 c-72 -35 -137 -92 -177 -156 l-26
-41 -18 25 c-58 77 -78 99 -117 129 -23 18 -72 43 -108 56 -65 24 -66 24 -533
24 -444 0 -471 -1 -527 -20 -32 -11 -75 -31 -94 -44 -48 -32 -117 -104 -131
-138 -14 -35 -32 -36 -47 -3 -17 36 -91 114 -136 142 -21 14 -64 34 -94 44
-51 18 -90 19 -522 19 -443 0 -470 -1 -526 -20 -94 -33 -167 -90 -220 -172
-28 -45 -37 -47 -52 -13 -18 38 -88 111 -140 143 -100 63 -100 63 -633 60
l-484 -3 -65 -31 c-99 -47 -176 -131 -216 -236 -14 -36 -18 -101 -23 -393 l-6
-350 -435 0 -435 0 -5 460 c-4 337 -8 466 -17 481 -7 12 -26 34 -44 48 l-31
26 -194 0 -194 0 -40 -40 c-31 -31 -40 -47 -40 -75 0 -19 -5 -35 -10 -35 -6 0
-30 18 -53 41 -23 22 -71 54 -107 71 -54 26 -81 33 -160 37 l-95 6 3 30 c2 17
19 87 38 158 41 152 38 188 -23 234 -36 28 -37 28 -217 31 -162 2 -185 1 -216
-16z m345 -144 c-4 -18 -24 -100 -46 -181 -21 -82 -39 -150 -39 -153 0 -2 -65
-4 -145 -4 -127 0 -145 2 -145 16 0 18 79 334 87 347 2 4 70 7 149 7 l146 0
-7 -32z m-5576 -432 c8 -9 11 -56 9 -142 l-3 -129 -260 -5 -260 -5 -3 -507 -2
-508 -145 0 -145 0 -2 508 -3 507 -257 3 -258 2 0 139 c0 75 3 141 7 144 3 4
300 7 658 7 545 0 654 -2 664 -14z m1375 8 c14 -5 16 -28 16 -145 l0 -139
-467 -2 -468 -3 -3 -107 -3 -108 373 -2 373 -3 3 -142 3 -143 -376 0 -375 0 0
-110 0 -110 468 -2 467 -3 0 -140 0 -140 -617 -3 -618 -2 0 648 c0 357 3 652
7 655 8 9 1196 9 1217 1z m1520 0 c14 -5 16 -28 16 -145 l0 -139 -522 -2 -523
-3 -3 -362 -2 -363 522 -2 523 -3 0 -140 0 -140 -550 -3 c-488 -2 -555 0 -599
14 -58 19 -128 81 -159 139 -21 39 -22 51 -25 473 -3 480 -1 503 58 575 40 48
107 86 167 97 56 9 1074 13 1097 4z m505 -3 c9 -5 179 -197 376 -425 198 -229
363 -416 367 -416 5 0 8 189 8 419 0 373 2 420 16 425 9 3 71 6 139 6 91 0
125 -3 134 -14 8 -9 10 -189 9 -652 l-3 -639 -150 -3 -150 -2 -265 307 c-146
169 -312 361 -370 428 l-105 120 -5 -425 -5 -425 -145 0 -145 0 -3 639 c-1
463 1 643 9 652 14 16 259 20 288 5z m2432 -17 c65 -30 119 -81 145 -139 l24
-50 0 -446 0 -445 -26 -52 c-26 -52 -69 -93 -134 -128 -33 -18 -66 -19 -489
-22 -403 -2 -459 -1 -504 14 -59 19 -129 80 -160 139 -22 39 -22 48 -22 495
l0 455 23 45 c45 85 115 136 205 150 29 5 241 7 472 7 404 -2 422 -3 466 -23z
m659 -484 l5 -505 520 -5 520 -5 3 -143 3 -142 -668 2 -668 3 -3 640 c-1 352
0 646 3 653 3 9 38 12 142 10 l138 -3 5 -505z m2324 487 c61 -27 119 -80 146
-133 l25 -49 3 -442 c3 -435 2 -444 -19 -493 -13 -31 -41 -68 -71 -95 -85 -76
-84 -76 -599 -73 l-454 3 -54 30 c-61 34 -116 99 -131 156 -7 25 -10 198 -8
482 3 409 4 445 22 477 42 80 117 135 205 150 25 5 237 8 471 7 383 -2 429 -4
464 -20z m1568 -10 c110 -54 158 -140 158 -284 l0 -84 -147 3 -148 3 -5 50 -5
50 -370 0 -370 0 -3 -362 -2 -363 375 0 376 0 -3 93 -3 92 -137 3 -138 3 0
139 0 140 290 0 290 0 0 -272 c0 -310 -3 -324 -83 -406 -79 -81 -85 -82 -587
-82 -420 0 -442 1 -495 21 -70 26 -137 92 -159 156 -14 40 -16 108 -16 472 0
263 4 440 10 463 24 86 122 171 216 188 27 4 240 8 474 7 l425 -2 57 -28z
m1550 0 c32 -16 73 -46 92 -69 66 -77 66 -72 66 -670 l0 -539 -147 3 -148 3
-3 208 -2 207 -373 -2 -372 -3 -3 -207 -2 -208 -145 0 -145 0 0 538 c0 592 0
591 61 665 39 48 106 86 166 97 27 5 239 8 473 7 l425 -2 57 -28z m1540 6 c26
-12 68 -43 93 -68 56 -58 77 -123 73 -227 l-3 -73 -145 0 -145 0 -5 50 -5 50
-370 0 -370 0 -3 -107 -3 -107 418 -3 418 -3 57 -28 c32 -16 74 -47 93 -70 57
-66 68 -120 63 -325 -4 -203 -12 -229 -93 -300 -82 -72 -84 -72 -576 -72 -417
0 -441 1 -493 20 -64 24 -130 84 -157 143 -14 31 -19 65 -19 135 l0 92 145 0
145 0 0 -50 0 -50 375 0 375 0 0 110 0 110 -406 0 c-273 0 -419 4 -444 11 -61
18 -131 78 -162 138 -28 53 -28 54 -28 245 0 179 2 194 24 241 37 80 115 139
205 155 25 5 237 8 471 7 414 -2 426 -3 472 -24z m-10502 -628 l0 -245 -469 0
c-258 0 -476 3 -485 6 -14 5 -16 36 -16 240 l0 234 478 3 c262 1 480 3 485 5
4 1 7 -108 7 -243z m-1532 -2 l-3 -238 -54 -3 c-30 -2 -58 1 -62 5 -5 5 -2 26
6 48 10 28 14 86 14 190 1 127 -2 156 -19 193 l-19 42 70 0 69 0 -2 -237z
m8435 205 c-53 -57 -55 -65 -52 -261 l3 -182 -94 0 -95 0 -3 238 -2 237 137 0
137 0 -31 -32z m2381 -339 c-10 -16 -24 -9 -24 12 0 18 2 19 15 9 8 -7 12 -16
9 -21z"/>
<path d="M12585 4458 c-3 -7 -4 -171 -3 -363 l3 -350 378 -3 377 -2 -2 362 -3
363 -373 3 c-293 2 -374 0 -377 -10z m615 -352 c0 -204 -2 -235 -16 -240 -20
-8 -428 -8 -448 0 -14 5 -16 36 -16 240 l0 234 240 0 240 0 0 -234z"/>
<path d="M15577 4463 c-4 -3 -7 -168 -7 -365 l0 -358 375 0 375 0 -2 363 -3
362 -366 3 c-201 1 -368 -1 -372 -5z m613 -358 l0 -235 -22 -5 c-13 -3 -120
-4 -238 -3 l-215 3 -3 238 -2 237 240 0 240 0 0 -235z"/>
<path d="M18674 4457 c-2 -7 -3 -78 -2 -157 l3 -145 373 -3 373 -2 -3 157 -3
158 -368 3 c-295 2 -369 0 -373 -11z m616 -142 l0 -25 -240 0 -240 0 0 25 0
25 240 0 240 0 0 -25z"/>
<path d="M8459 3066 c-112 -31 -210 -112 -266 -217 l-28 -54 -3 -590 c-2 -578
-2 -591 18 -623 33 -54 67 -62 257 -62 185 0 217 8 257 63 19 26 21 46 25 193
l3 164 237 -2 236 -3 5 -162 c4 -143 7 -165 26 -190 40 -55 72 -63 257 -63
189 0 219 7 258 61 l24 34 3 510 c2 280 -1 544 -6 586 -22 175 -124 297 -293
350 -56 18 -97 19 -512 18 -332 -1 -464 -4 -498 -13z m1029 -150 c30 -17 67
-47 84 -68 57 -73 58 -81 58 -665 l0 -534 -147 3 -148 3 -3 208 -2 207 -373
-2 -372 -3 -3 -207 -2 -208 -145 0 -145 0 0 539 c0 583 0 583 55 655 30 40 90
81 136 95 21 6 216 9 494 8 l460 -2 53 -29z"/>
<path d="M8584 2647 c-2 -7 -3 -76 -2 -152 l3 -140 373 -3 372 -2 0 155 0 155
-370 0 c-295 0 -372 -3 -376 -13z m611 -137 l0 -25 -237 -3 -238 -2 0 30 0 30
238 -2 237 -3 0 -25z"/>
<path d="M10393 3060 c-72 -43 -68 2 -71 -750 -2 -628 -1 -677 15 -709 10 -19
31 -44 46 -55 28 -21 37 -21 692 -21 655 0 664 0 692 21 24 17 54 63 66 99 2
5 21 -5 42 -24 22 -19 69 -48 105 -65 l65 -31 495 0 495 0 67 32 c64 30 152
106 191 163 l17 25 17 -24 c46 -64 128 -135 191 -164 l67 -32 594 -3 c568 -3
595 -2 632 16 38 19 40 19 77 0 37 -18 67 -18 694 -16 580 3 657 5 678 19 23
15 28 15 68 -3 39 -17 63 -19 220 -16 192 3 205 7 243 65 17 25 19 52 19 291
0 144 4 262 8 262 5 0 117 -125 249 -278 133 -152 255 -290 273 -307 l31 -30
202 0 c180 0 205 2 229 19 27 18 28 18 73 -4 42 -20 56 -21 222 -18 256 4 256
4 263 248 l5 165 240 0 240 0 5 -165 c7 -246 6 -245 284 -245 213 0 229 4 260
70 23 48 24 1100 1 1188 -33 129 -139 235 -274 278 -58 18 -95 19 -513 19
-379 0 -458 -2 -504 -16 -75 -21 -137 -58 -187 -110 -23 -24 -45 -44 -49 -44
-5 0 -8 14 -8 31 0 48 -27 94 -69 117 -36 20 -53 22 -211 22 -192 0 -227 -9
-261 -64 -17 -28 -19 -54 -19 -294 0 -170 -4 -262 -10 -260 -5 2 -123 134
-261 293 -137 160 -264 298 -282 308 -27 14 -59 17 -207 17 -154 0 -180 -2
-214 -19 -38 -20 -38 -20 -74 0 -35 18 -62 19 -682 19 -625 0 -646 -1 -682
-20 -38 -20 -38 -20 -76 0 -38 20 -54 20 -628 18 l-589 -3 -58 -23 c-74 -30
-148 -89 -191 -153 l-34 -51 -41 56 c-50 67 -114 118 -189 148 -56 23 -64 23
-521 26 -404 2 -471 0 -520 -14 -72 -21 -122 -46 -167 -87 -21 -17 -39 -27
-41 -22 -13 41 -43 83 -72 102 l-34 23 -651 0 c-628 0 -652 -1 -683 -20z
m1305 -244 c2 -86 -1 -133 -9 -142 -9 -12 -92 -14 -476 -14 l-464 0 3 -107 3
-108 378 -3 377 -2 0 -140 0 -140 -377 -2 -378 -3 0 -110 0 -110 470 -5 470
-5 0 -135 0 -135 -617 -3 -618 -2 0 650 0 650 618 -2 617 -3 3 -129z m1359
106 c105 -56 145 -126 151 -265 l4 -98 -148 3 -149 3 -3 48 -3 47 -375 0 -375
0 3 -107 3 -108 425 -5 c475 -6 464 -4 540 -80 67 -67 75 -94 78 -292 4 -216
-6 -264 -71 -330 -83 -86 -62 -83 -580 -86 -299 -2 -471 1 -497 8 -54 15 -119
67 -155 125 -27 44 -30 57 -33 152 l-4 103 146 0 145 0 3 -52 3 -53 370 0 370
0 0 110 0 110 -425 5 -425 5 -46 27 c-59 34 -102 84 -123 140 -15 37 -17 75
-14 234 3 181 4 192 29 239 28 56 103 118 158 134 21 5 225 9 496 8 457 -2
460 -2 502 -25z m1691 -114 l-3 -143 -520 -5 -520 -5 -3 -354 c-2 -277 1 -356
10 -363 7 -4 244 -8 526 -8 l512 0 0 -140 0 -140 -562 1 c-405 0 -572 4 -595
12 -60 22 -117 72 -148 128 l-30 54 0 455 c0 450 0 455 22 496 38 70 100 122
173 145 14 4 276 8 583 8 l558 1 -3 -142z m1440 0 l-3 -143 -468 -3 -468 -2 3
-108 3 -107 373 -3 372 -2 0 -140 0 -140 -372 -2 -373 -3 0 -110 0 -110 468
-3 467 -2 0 -140 0 -140 -620 0 -620 0 0 650 0 650 620 0 621 0 -3 -142z m862
-278 c200 -231 367 -420 372 -420 4 0 8 189 8 420 l0 421 148 -3 147 -3 0
-645 0 -645 -150 -3 -151 -2 -326 377 c-180 208 -347 401 -372 428 l-45 50 -1
-427 0 -428 -145 0 -145 0 0 650 0 650 148 0 149 0 363 -420z m2080 388 c58
-34 104 -83 127 -133 17 -37 18 -85 21 -587 l3 -548 -150 0 -151 0 -2 208 -3
207 -370 0 -370 0 -3 -207 -2 -208 -145 0 -145 0 0 548 0 547 24 51 c13 28 43
67 67 87 76 66 81 66 594 64 l460 -2 45 -27z m-4315 -617 l0 -242 -480 1
c-264 0 -483 4 -487 8 -5 5 -7 112 -6 238 l3 229 475 5 c261 3 480 5 485 4 6
0 10 -89 10 -243z m-3074 129 c8 -129 24 -180 77 -243 9 -9 13 -18 11 -20 -2
-2 -17 -11 -32 -21 -15 -9 -35 -33 -44 -51 -16 -34 -19 -35 -73 -35 -31 0 -59
3 -63 6 -3 4 2 18 11 32 14 22 17 53 17 202 0 150 -2 179 -18 201 -9 14 -14
29 -10 33 4 4 32 6 63 4 l55 -3 6 -105z m4509 -134 l0 -244 -67 5 c-38 3 -70
7 -72 9 -2 2 4 21 13 44 22 56 23 324 1 377 -8 19 -15 39 -15 44 0 5 32 9 70
9 l70 0 0 -244z m-2970 123 c0 -18 -2 -19 -15 -9 -8 7 -15 16 -15 21 0 5 7 9
15 9 9 0 15 -9 15 -21z"/>
<path d="M18230 2505 l0 -155 375 0 375 0 0 155 0 155 -375 0 -375 0 0 -155z
m615 5 l0 -25 -238 -3 c-205 -2 -238 0 -243 13 -4 8 -4 22 0 30 5 13 38 15
243 13 l238 -3 0 -25z"/>
</g>
</svg>
